# AST/ASF file generated using VICON BodyLanguage
# -----------------------------------------------
:version 1.10
:name VICON
:units
  mass 1.0
  length 0.45
  angle deg
:documentation
   .ast/.asf automatically generated from VICON data using
   VICON BodyBuilder and BodyLanguage model FoxedUp or BRILLIANT.MOD
:root
   order TX TY TZ RX RY RZ
   axis XYZ
   position 0 0 0  
   orientation 0 0 0 
:bonedata
  begin
     id 1 
     name lhipjoint
     direction 0.692814 -0.645514 0.321437 
     length 2.38754 
     axis 0 0 0  XYZ
  end
  begin
     id 2 
     name lfemur
     direction 0.34202 -0.939693 0  
     length 6.41921  
     axis 0 0 20  XYZ
    dof rx ry rz
    limits (-160.0 20.0)
           (-70.0 70.0)
           (-60.0 70.0)
  end
  begin
     id 3 
     name ltibia
     direction 0.34202 -0.939693 0   
     length 6.98247   
     axis 0 0 20   XYZ
    dof rx
    limits (-10.0 170.0)
  end
  begin
     id 4 
     name lfoot
     direction 0.0947186 -0.260237 0.960888   
     length 1.83034   
     axis -90 7.62852e-016 20   XYZ
    dof rx rz
    limits (-45.0 90.0)
           (-70.0 20.0)
  end
  begin
     id 5 
     name ltoes
     direction 1.53538e-011 -4.21952e-011 1   
     length 0.920499   
     axis -90 7.62852e-016 20   XYZ
    dof rx
    limits (-90.0 20.0)
  end
  begin
     id 6 
     name rhipjoint
     direction -0.631686 -0.693949 0.345555   
     length 2.2209  
     axis 0 0 0  XYZ 
  end
  begin
     id 7 
     name rfemur
     direction -0.34202 -0.939693 0   
     length 6.49542   
     axis 0 0 -20   XYZ
    dof rx ry rz
    limits (-160.0 20.0)
           (-70.0 70.0)
           (-70.0 60.0)
  end
  begin
     id 8 
     name rtibia
     direction -0.34202 -0.939693 0   
     length 7.21712   
     axis 0 0 -20   XYZ
    dof rx
    limits (-10.0 170.0)
 end
 begin
     id 9 
     name rfoot
     direction -0.0825378 -0.226771 0.970444   
     length 1.89724  
     axis -90 -7.62852e-016 -20   XYZ
    dof rx rz
    limits (-45.0 90.0)
           (-20.0 70.0)
  end
  begin
     id 10 
     name rtoes
     direction -1.53515e-011 -4.22016e-011 1   
     length 0.955868   
     axis -90 -7.62852e-016 -20   XYZ
    dof rx
    limits (-90.0 20.0)
  end
  begin
     id 11 
     name lowerback
     direction -0.0104711 0.984802 -0.173368   
     length 1.84931   
     axis 0 0 0   XYZ
    dof rx ry rz
    limits (-20.0 45.0)
           (-30.0 30.0)
           (-30.0 30.0)
  end
  begin
     id 12 
     name upperback
     direction -0.00286433 0.999996 -0.000382853   
     length 1.85768   
     axis 0 0 0   XYZ
    dof rx ry rz
    limits (-20.0 45.0)
           (-30.0 30.0)
           (-30.0 30.0)
  end
  begin
     id 13 
     name thorax
     direction 0.00167534 0.996793 0.0800069   
     length 1.92   
     axis 0 0 0   XYZ
    dof rx ry rz
    limits (-20.0 45.0)
           (-30.0 30.0)
           (-30.0 30.0)
  end
  begin
     id 14 
     name lowerneck
     direction -0.0672491 0.995415 0.068018   
     length 1.58923   
     axis 0 0 0   XYZ
    dof rx ry rz
    limits (-20.0 45.0)
           (-30.0 30.0)
           (-30.0 30.0)
  end
  begin
     id 15 
     name upperneck
     direction 0.0958019 0.982476 -0.159884   
     length 1.60189   
     axis 0 0 0   XYZ
    dof rx ry rz
    limits (-20.0 45.0)
           (-30.0 30.0)
           (-30.0 30.0)
  end
  begin
     id 16
     name head
     direction 0.032989 0.997338 -0.0650226  
     length 1.61681  
     axis 0 0 0   XYZ
    dof rx ry rz
    limits (-20.0 45.0)
           (-30.0 30.0)
           (-30.0 30.0)
  end
  begin
     id 17 
     name lclavicle
     direction 0.954279 0.298875 -0.00496069  
     length 2.99449  
     axis 0 0 0   XYZ
    dof ry rz
    limits (-20.0 10.0)
           (0.0 20.0)
  end
  begin
     id 18 
     name lhumerus
     direction 1 -4.48985e-011 -4.2057e-027   
     length 4.79185   
     axis 180 -30 -90   XYZ
    dof rx ry rz
    limits (-60.0 90.0)
           (-90.0 90.0)
           (-90.0 90.0)
  end
  begin
     id 19
     name lradius
     direction 1 -4.48945e-011 1.15441e-028   
     length 2.65553   
     axis 180 -30 -90   XYZ
    dof rx
    limits (-10.0 170.0)
  end
  begin
     id 20
     name lwrist
     direction 1 -4.4899e-011 4.8894e-028   
     length 1.32777   
     axis -2.56392e-016 90 90   XYZ
    dof ry
    limits (-180.0 0.0)
 end
  begin
     id 21 
     name lhand
     direction 1 -4.48908e-011 9.7788e-028   
     length 0.743904   
     axis -6.23971e-016 90 90   XYZ
    dof rx rz
    limits (-90.0 90.0)
           (-45.0 45.0)
  end
  begin
     id 22 
     name lfingers
     direction 1 -4.49068e-011 1.95576e-027   
     length 0.599754   
     axis -1.24794e-015 90 90   XYZ
    dof rx
    limits (0.0 90.0)
  end
  begin
     id 23
     name lthumb
     direction 0.707107 -6.34883e-011 0.707107   
     length 0.861131   
     axis -90 45 2.85299e-015   XYZ
    dof rx rz
    limits (-45.0 45.0)
           (-45.0 45.0)
  end
  begin
     id 24 
     name rclavicle
     direction -0.957921 0.286916 0.00811568   
     length 3.06817  
     axis 0 0 0   XYZ 
    dof ry rz
    limits (-10.0 20.0)
           (-20.0 0.0)
  end
  begin
     id 25 
     name rhumerus
     direction -1 -4.48971e-011 -3.07942e-027  
     length 4.77254   
     axis 180 30 90   XYZ
    dof rx ry rz
    limits (-90.0 60.0)
           (-90.0 90.0)
           (-90.0 90.0)
  end
  begin
     id 26 
     name rradius
     direction -1 -4.48957e-011 -9.6815e-028   
     length 2.75995   
     axis 180 30 90   XYZ
    dof rx
    limits (-10.0 170.0)
  end
  begin
     id 27 
     name rwrist
     direction -1 -4.48979e-011 4.8894e-028   
     length 1.37997   
     axis -2.56392e-016 -90 -90   XYZ
    dof ry
    limits (-180.0 0.0)
  end
  begin
     id 28
     name rhand
     direction -1 -4.48906e-011 9.7788e-028   
     length 0.701619   
     axis -6.23971e-016 -90 -90   XYZ
    dof rx rz
    limits (-90.0 90.0)
           (-45.0 45.0)
  end
  begin
     id 29
     name rfingers
     direction -1 -4.49018e-011 1.95576e-027   
     length 0.565663   
     axis -1.24794e-015 -90 -90   XYZ
    dof rx
    limits (0.0 90.0)
  end
  begin
     id 30
     name rthumb
     direction -0.707107 -6.34881e-011 0.707107   
     length 0.812183   
     axis -90 -45 -2.85299e-015   XYZ
    dof rx rz
    limits (-45.0 45.0)
           (-45.0 45.0)
  end
:hierarchy
  begin
    root lhipjoint rhipjoint lowerback
    lhipjoint lfemur
    lfemur ltibia
    ltibia lfoot
    lfoot ltoes
    rhipjoint rfemur
    rfemur rtibia
    rtibia rfoot
    rfoot rtoes
    lowerback upperback
    upperback thorax
    thorax lowerneck lclavicle rclavicle
    lowerneck upperneck
    upperneck head
    lclavicle lhumerus
    lhumerus lradius
    lradius lwrist
    lwrist lhand lthumb
    lhand lfingers
    rclavicle rhumerus
    rhumerus rradius
    rradius rwrist
    rwrist rhand rthumb
    rhand rfingers
  end

#!OML:ASF F:\VICON\USERDATA\INSTALL\rory3\rory3.ASF
:FULLY-SPECIFIED
:DEGREES
1138
root 0.416109 15.2279 -2.57953 9.15477 1.05905 -0.735651
lowerback 32.4244 0.708084 -2.00776
upperback 11.0954 0.371281 0.908767
thorax -5.07449 0.128261 2.04825
lowerneck -11.5492 -13.943 -14.8055
upperneck -10.1268 -16.7313 24.084
head 2.46339 -8.07542 8.47007
rclavicle 6.4605e-016 -6.5102e-015
rhumerus 18.6287 18.4879 -74.3135
rradius 129.681
rwrist 27.9654
rhand 5.71097 7.69511
rfingers 7.12502
rthumb 31.0479 -19.6972
lclavicle 6.4605e-016 -6.5102e-015
lhumerus 17.0705 -23.2548 67.6504
lradius 117.486
lwrist -1.56986
lhand -17.6266 19.0293
lfingers 7.12502
lthumb 8.63071 48.8329
rfemur -38.7592 7.26292 13.4367
rtibia 47.2932
rfoot -13.6537 -10.9081
rtoes -19.9963
lfemur -39.0137 -7.52369 -13.5634
ltibia 45.7435
lfoot -11.978 4.21638
ltoes -16.099
1139
root 0.424545 15.2317 -2.5708 9.00027 0.767538 -0.653648
lowerback 32.4428 0.749756 -1.91279
upperback 10.9815 0.43751 0.793416
thorax -5.21585 0.165576 1.8407
lowerneck -12.3292 -12.8459 -14.2426
upperneck -9.61035 -15.2248 22.5014
head 2.22783 -7.26657 8.07236
rclavicle 5.41688e-015 -2.11209e-015
rhumerus 18.3641 18.2655 -74.5381
rradius 129.548
rwrist 27.9496
rhand 5.73628 7.81248
rfingers 7.12502
rthumb 31.072 -19.5752
lclavicle 5.41688e-015 -2.11209e-015
lhumerus 16.9655 -23.6847 67.5972
lradius 117.554
lwrist -1.57541
lhand -17.8876 19.5878
lfingers 7.12502
lthumb 8.3788 49.4016
rfemur -38.5482 7.39951 13.3294
rtibia 47.1991
rfoot -13.6634 -10.7506
rtoes -20.0847
lfemur -38.6732 -7.43144 -13.7277
ltibia 45.6512
lfoot -12.0288 4.31263
ltoes -16.119
1140
root 0.430662 15.2363 -2.56237 8.8063 0.507383 -0.770325
lowerback 32.4625 0.761801 -1.604
upperback 10.937 0.53175 0.694256
thorax -5.27845 0.216956 1.51737
lowerneck -13.2184 -11.8432 -13.8071
upperneck -8.94405 -13.8556 21.1337
head 2.1426 -6.51971 7.71398
rclavicle 3.72721e-016 1.61513e-015
rhumerus 18.1852 18.0808 -74.7027
rradius 129.416
rwrist 27.996
rhand 5.71917 7.68338
rfingers 7.12502
rthumb 31.0557 -19.7075
lclavicle 3.72721e-016 1.61513e-015
lhumerus 16.871 -23.994 67.5459
lradius 117.546
lwrist -1.67147
lhand -17.9481 19.45
lfingers 7.12502
lthumb 8.32041 49.2661
rfemur -38.2812 7.6095 13.4558
rtibia 47.0675
rfoot -13.6022 -10.6959
rtoes -20.3504
lfemur -38.3197 -7.29749 -13.6644
ltibia 45.5808
lfoot -12.0783 4.37657
ltoes -16.0674
1141
root 0.434591 15.2399 -2.55541 8.64439 0.278267 -0.786242
lowerback 32.4442 0.840857 -1.42516
upperback 10.9356 0.676684 0.647324
thorax -5.27601 0.288999 1.30991
lowerneck -13.9158 -10.9825 -13.5961
upperneck -8.47455 -12.6558 19.9769
head 2.05856 -5.87593 7.43782
rclavicle 2.62147e-015 -3.85145e-016
rhumerus 18.0204 17.7306 -74.6761
rradius 129.33
rwrist 28.1449
rhand 5.87142 7.73971
rfingers 7.12502
rthumb 31.2008 -19.6233
lclavicle 2.62147e-015 -3.85145e-016
lhumerus 16.8149 -24.1576 67.6633
lradius 117.386
lwrist -1.77706
lhand -17.8362 19.0739
lfingers 7.12502
lthumb 8.4284 48.8857
rfemur -38.0598 7.78705 13.4705
rtibia 46.9528
rfoot -13.5986 -10.6279
rtoes -20.1646
lfemur -38.0076 -7.17815 -13.702
ltibia 45.52
lfoot -12.1501 4.4312
ltoes -15.7062
1142
root 0.438064 15.2439 -2.54922 8.53351 0.0735689 -0.782043
lowerback 32.4517 0.926316 -1.26451
upperback 10.8752 0.823401 0.591628
thorax -5.35122 0.362786 1.10222
lowerneck -14.4115 -10.1571 -13.3363
upperneck -8.11492 -11.5251 18.8411
head 1.93884 -5.28755 7.15378
rclavicle -5.31128e-015 -2.92586e-015
rhumerus 17.7382 17.3457 -74.6716
rradius 129.271
rwrist 28.4699
rhand 5.95428 7.954
rfingers 7.12502
rthumb 31.2798 -19.3938
lclavicle -5.31128e-015 -2.92586e-015
lhumerus 16.7121 -24.2925 67.7226
lradius 117.263
lwrist -1.98971
lhand -17.408 18.801
lfingers 7.12502
lthumb 8.84162 48.5958
rfemur -37.9013 7.92381 13.4692
rtibia 46.8577
rfoot -13.6083 -10.5726
rtoes -19.7851
lfemur -37.7661 -7.06794 -13.7441
ltibia 45.4673
lfoot -12.2053 4.46078
ltoes -15.4437
1143
root 0.440582 15.2453 -2.54573 8.50114 -0.116326 -0.728044
lowerback 32.3604 0.988355 -1.15794
upperback 10.8158 0.921451 0.474398
thorax -5.37839 0.413491 0.874727
lowerneck -14.9103 -9.36634 -13.0235
upperneck -7.71941 -10.4595 17.8109
head 1.86323 -4.73602 6.878
rclavicle -5.80203e-015 9.69075e-016
rhumerus 17.5098 17.058 -74.703
rradius 129.178
rwrist 28.7413
rhand 5.9392 7.96492
rfingers 7.12502
rthumb 31.2654 -19.3856
lclavicle -5.80203e-015 9.69075e-016
lhumerus 16.8202 -24.5384 67.524
lradius 117.262
lwrist -2.15722
lhand -17.1676 18.8057
lfingers 7.12502
lthumb 9.0736 48.5906
rfemur -37.8689 8.05481 13.3975
rtibia 46.8108
rfoot -13.5715 -10.5563
rtoes -19.7586
lfemur -37.63 -6.96231 -13.8306
ltibia 45.3944
lfoot -12.2543 4.50531
ltoes -15.5817
